<svg xmlns="http://www.w3.org/2000/svg" viewBox="0 0 17.59 23"><defs><style>.cls-1{fill:#c70023;fill-rule:evenodd;}.cls-2{fill:none;stroke:#c70023;stroke-miterlimit:10;}</style></defs><title>person</title><g id="Слой_2" data-name="Слой 2"><g id="_72_icons" data-name="72 icons"><g id="user"><path class="cls-1" d="M8.79,13.33c-5,0-7.44,3.59-8.27,8.06a.93.93,0,0,0,.91,1.11h0a.93.93,0,0,0,.92-.75C3,18.1,4.75,15.17,8.79,15.17s5.83,2.93,6.44,6.58a.93.93,0,0,0,.92.75h0a.93.93,0,0,0,.91-1.11C16.24,16.92,13.77,13.33,8.79,13.33Zm0-1.83A5.62,5.62,0,0,0,14.54,6,5.62,5.62,0,0,0,8.79.5,5.63,5.63,0,0,0,3,6,5.63,5.63,0,0,0,8.79,11.5Zm0-9.17A3.76,3.76,0,0,1,12.63,6,3.76,3.76,0,0,1,8.79,9.67,3.75,3.75,0,0,1,5,6,3.75,3.75,0,0,1,8.79,2.33Z"/><path class="cls-2" d="M8.79,13.33c-5,0-7.44,3.59-8.27,8.06a.93.93,0,0,0,.91,1.11h0a.93.93,0,0,0,.92-.75C3,18.1,4.75,15.17,8.79,15.17s5.83,2.93,6.44,6.58a.93.93,0,0,0,.92.75h0a.93.93,0,0,0,.91-1.11C16.24,16.92,13.77,13.33,8.79,13.33Zm0-1.83A5.62,5.62,0,0,0,14.54,6,5.62,5.62,0,0,0,8.79.5,5.63,5.63,0,0,0,3,6,5.63,5.63,0,0,0,8.79,11.5Zm0-9.17A3.76,3.76,0,0,1,12.63,6,3.76,3.76,0,0,1,8.79,9.67,3.75,3.75,0,0,1,5,6,3.75,3.75,0,0,1,8.79,2.33Z"/></g></g></g></svg>