<svg xmlns="http://www.w3.org/2000/svg" viewBox="0 0 100 80.75"><defs><style>.cls-1{fill:#fff;stroke:#fff;stroke-miterlimit:10;stroke-width:2px;}</style></defs><title>ic_pick</title><g id="Слой_2" data-name="Слой 2"><g id="Слой_1-2" data-name="Слой 1"><path class="cls-1" d="M22.63,53.9h9A5.81,5.81,0,0,0,33.1,42.46l-9-2.35A5.82,5.82,0,0,0,17,44.25a5.72,5.72,0,0,0-.19,1.48v2.35a5.82,5.82,0,0,0,5.82,5.82Zm-1.81-8.17a1.81,1.81,0,0,1,1.81-1.81,1.76,1.76,0,0,1,.46.06l9,2.35a1.81,1.81,0,0,1-.46,3.57h-9a1.82,1.82,0,0,1-1.81-1.81ZM75.9,40.11l-9,2.35A5.81,5.81,0,0,0,68.38,53.9h9a5.81,5.81,0,0,0,5.81-5.81V45.73a5.81,5.81,0,0,0-5.81-5.81A6.13,6.13,0,0,0,75.9,40.11Zm2.58,4.19a1.82,1.82,0,0,1,.71,1.44v2.35a1.82,1.82,0,0,1-1.81,1.81h-9a1.81,1.81,0,0,1-.46-3.57l9-2.35a1.76,1.76,0,0,1,.46-.06A1.81,1.81,0,0,1,78.48,44.3ZM6.81,38.39a22.75,22.75,0,0,0-2.54,11V72.85a6.91,6.91,0,0,0,6.9,6.9H17.5a6.91,6.91,0,0,0,6.9-6.9V71.17H75.6v1.68a6.91,6.91,0,0,0,6.9,6.9h6.34a6.91,6.91,0,0,0,6.9-6.9V49.45a22.75,22.75,0,0,0-2.54-11A7,7,0,0,0,99,31.64V28h0a6.89,6.89,0,0,0-6.7-6.72H90.4a9.49,9.49,0,0,0-4.58,1.31c-1.7-4.09-4.41-10.26-6.35-13.06-3.7-5.31-9-6.78-12.63-7.42A97.82,97.82,0,0,0,50,1a97.4,97.4,0,0,0-16.8,1.1c-3.65.64-8.94,2.1-12.64,7.42-1.94,2.8-4.65,9-6.35,13.06a9.42,9.42,0,0,0-4.6-1.31H7.74A6.89,6.89,0,0,0,1,28v3.6A7,7,0,0,0,6.81,38.39ZM5,28.19a2.86,2.86,0,0,1,2.84-2.86H9.56a6.22,6.22,0,0,1,4.14,1.91,2,2,0,0,0,2.83-.09,2.1,2.1,0,0,0,.39-.62C19.71,19.6,22.36,14,23.83,11.87c2.81-4,6.84-5.2,10-5.76a93.36,93.36,0,0,1,16.11-1,93.36,93.36,0,0,1,16.11,1c3.2.56,7.23,1.72,10,5.76C77.52,14,80.17,19.6,83,26.53a2,2,0,0,0,2.6,1.11,2.13,2.13,0,0,0,.62-.4,6.24,6.24,0,0,1,4.11-1.91H92a2.87,2.87,0,0,1,3,2.76v3.46a3,3,0,0,1-3,3H89.64a2,2,0,0,0-2,2,2,2,0,0,0,.4,1.2c.23.3.44.61.65.91a18.57,18.57,0,0,1,3,10.76V72.85a2.9,2.9,0,0,1-2.9,2.9H82.5a2.9,2.9,0,0,1-2.9-2.9h0V69.17a2,2,0,0,0-2-2H22.4a2,2,0,0,0-2,2v3.68a2.9,2.9,0,0,1-2.9,2.9H11.15a2.9,2.9,0,0,1-2.9-2.9h0V49.39a18.52,18.52,0,0,1,3-10.72c.21-.3.42-.61.65-.91a2,2,0,0,0-1.6-3.2H10l-2,0a3,3,0,0,1-3-3Z"/></g></g></svg>