<svg xmlns="http://www.w3.org/2000/svg" viewBox="0 0 67 67"><defs><style>.cls-1{fill:none;stroke:#c70023;stroke-miterlimit:10;stroke-width:7px;}</style></defs><title>Ресурс 1</title><g id="Слой_2" data-name="Слой 2"><g id="Layer_1" data-name="Layer 1"><path class="cls-1" d="M50,41.73A4.84,4.84,0,0,0,43.48,43c-2.35,2.9-5.26,7.74-16.24-3.25S21.09,25.87,24,23.52A4.84,4.84,0,0,0,25.27,17c-.8-1.21-5.91-9.09-6.81-10.4s-2.11-3.44-4.92-3c-2.08.3-10,4.53-10,13.51s7.08,20,16.76,29.68S41,63.5,49.94,63.5s13.21-8,13.51-10c.4-2.81-1.73-4-3-4.92S51.22,42.53,50,41.73Z"/></g></g></svg>