<svg xmlns="http://www.w3.org/2000/svg" viewBox="0 0 86.46 77.44"><defs><style>.cls-1{fill:#fff;stroke:#fff;stroke-miterlimit:10;stroke-width:2px;}</style></defs><title>ic_record</title><g id="Слой_2" data-name="Слой 2"><g id="Capa_1" data-name="Capa 1"><path class="cls-1" d="M64.88,51.37A5.39,5.39,0,0,0,70.27,46V43.72a5.41,5.41,0,0,0-6.75-5.18L54.9,40.8a5.39,5.39,0,0,0,1.37,10.6ZM54.32,46a1.94,1.94,0,0,1,1.45-1.87l8.62-2.26a1.68,1.68,0,0,1,.5-.07,1.93,1.93,0,0,1,1.93,1.94V46a1.94,1.94,0,0,1-1.94,1.94H56.26A1.94,1.94,0,0,1,54.32,46ZM85.46,26.74v3.45a6.55,6.55,0,0,1-5.67,6.36A21.66,21.66,0,0,1,82.38,47.3V69.76A6.44,6.44,0,0,1,76,76.19H69.81a6.44,6.44,0,0,1-6.43-6.43V68H35.88a1.73,1.73,0,0,1,0-3.45H65.11a1.72,1.72,0,0,1,1.72,1.72v3.54a3,3,0,0,0,3,3H75.9a3,3,0,0,0,3-3V47.25a18,18,0,0,0-3-10.44c-.2-.29-.42-.59-.63-.86a1.73,1.73,0,0,1,.34-2.42,1.77,1.77,0,0,1,1-.34H79A3.12,3.12,0,0,0,82,30.09V26.85a3,3,0,0,0-2.92-2.94H77.37a6.14,6.14,0,0,0-4.07,1.87,1.73,1.73,0,0,1-2.78-.61c-2.68-6.66-5.23-12.07-6.65-14.11C61.1,7.05,57,6,54.1,5.43a78.8,78.8,0,0,0-12.93-1,1.73,1.73,0,0,1,0-3.45h0A82.09,82.09,0,0,1,54.64,2c3.45.6,8.49,2,12,7,1.89,2.72,4.55,8.8,6.17,12.72a8.83,8.83,0,0,1,4.49-1.35h1.82A6.36,6.36,0,0,1,85.46,26.74ZM11,39.1v30a7.35,7.35,0,0,0,7.37,7.32H23a7.33,7.33,0,0,0,7.3-7.32v-30a9,9,0,0,1,3.16-6.8A19.63,19.63,0,0,0,35.58,4.61a19.39,19.39,0,0,0-2.46-2.42,3.55,3.55,0,0,0-2.28-.86A3.68,3.68,0,0,0,27.16,5h0v8.25a3.45,3.45,0,0,1-3.45,3.45H17.5a3.45,3.45,0,0,1-3.45-3.45V5.05a3.68,3.68,0,0,0-3.61-3.69,3.56,3.56,0,0,0-2.28.87A19.64,19.64,0,0,0,5.47,29.87,20.24,20.24,0,0,0,7.85,32.3,9,9,0,0,1,11,39.1ZM4.4,17.38A16.16,16.16,0,0,1,10.33,4.85h.08a.24.24,0,0,1,.24.23v8.25a6.89,6.89,0,0,0,6.89,6.9h6.27a6.9,6.9,0,0,0,6.9-6.9V5.05a.26.26,0,0,1,.23-.24H31a16.23,16.23,0,0,1,.25,24.84,12.39,12.39,0,0,0-4.46,9.45v30A3.87,3.87,0,0,1,23,73H18.3a3.88,3.88,0,0,1-3.87-3.87v-30a12.36,12.36,0,0,0-4.35-9.41A16.21,16.21,0,0,1,4.4,17.38Z"/></g></g></svg>