<svg xmlns="http://www.w3.org/2000/svg" viewBox="0 0 39.9 39.9"><defs><style>.cls-1{fill:#fff;}</style></defs><title>icons/ic_social_instagram</title><g id="Слой_2" data-name="Слой 2"><g id="Layer_1" data-name="Layer 1"><path class="cls-1" d="M20,13.2a6.7,6.7,0,1,0,6.7,6.7A6.7,6.7,0,0,0,20,13.2Z"/><path class="cls-1" d="M27,0H13A13.1,13.1,0,0,0,0,13V26.9a13,13,0,0,0,13,13H26.9a13,13,0,0,0,13-13V13A13,13,0,0,0,27,0ZM20,30.4A10.4,10.4,0,1,1,30.4,20,10.39,10.39,0,0,1,20,30.4ZM30.2,12.1a2.54,2.54,0,0,1-2.5-2.5A2.7,2.7,0,0,1,30.2,7a2.54,2.54,0,0,1,2.5,2.5A2.5,2.5,0,0,1,30.2,12.1Z"/></g></g></svg>