<svg xmlns="http://www.w3.org/2000/svg" viewBox="0 0 36.46 20.82"><defs><style>.cls-1{fill:#fff;}</style></defs><title>icons/ic_social_vk</title><g id="Слой_2" data-name="Слой 2"><g id="Layer_1" data-name="Layer 1"><path class="cls-1" d="M17.83,20.7H20a2.18,2.18,0,0,0,1-.4,1.72,1.72,0,0,0,.3-1s0-2.9,1.3-3.3,3.1,2.8,4.9,4.1a3.54,3.54,0,0,0,2.4.7l4.9-.1s2.5-.2,1.3-2.2c-.1-.2-.7-1.5-3.6-4.2s-2.6-2.4,1-7.3c2.2-3,3.1-4.8,2.8-5.6s-1.9-.5-1.9-.5h-5.5a1,1,0,0,0-.7.1,1.79,1.79,0,0,0-.5.6,42.42,42.42,0,0,1-2,4.3c-2.4,4.1-3.4,4.4-3.8,4.1-.9-.5-.7-2.3-.7-3.6,0-4,.6-5.7-1.2-6.1a18.33,18.33,0,0,0-2.6-.3c-2,0-3.6,0-4.5.5-.6.3-1.1,1-.8,1a2.07,2.07,0,0,1,1.6.8,4.76,4.76,0,0,1,.5,2.5s.3,4.7-.8,5.3c-.7.4-1.7-.4-3.9-4.2a43,43,0,0,1-2-4,.78.78,0,0,0-.3-.6,1.46,1.46,0,0,0-.8-.3H1.23s-.8,0-1.1.4,0,.9,0,.9,4.1,9.5,8.7,14.3a12.37,12.37,0,0,0,9,4.1Z"/></g></g></svg>