<svg xmlns="http://www.w3.org/2000/svg" viewBox="0 0 231.76 137.42"><defs><style>.cls-1{fill:#c70023;}</style></defs><title>logo-finik</title><g id="Слой_2" data-name="Слой 2"><g id="Layer_1" data-name="Layer 1"><path class="cls-1" d="M8.18,119.09v18.33H0v-42H37.41v6.89H8.18v10H28.42v6.71Z"/><path class="cls-1" d="M58.43,95.46h8.19v42H58.43Z"/><path class="cls-1" d="M97.29,106.89v30.53H89.85v-42h7.38l27.62,29.92V95.46h7.45v42h-6.65Z"/><path class="cls-1" d="M157.32,95.46h8.19v42h-8.19Z"/><path class="cls-1" d="M205.61,117.79,198.72,123v14.46h-8.18v-42h8.18v17.9l22.21-17.9h10.83l-20.18,17,20.18,25h-10Z"/><path class="cls-1" d="M211.91,66.87a3.23,3.23,0,0,0-3.28,3.19,3.31,3.31,0,0,0,3.21,3.31,3.46,3.46,0,0,0,3.35-3.23A3.35,3.35,0,0,0,211.91,66.87Z"/><path class="cls-1" d="M227.57,31c-9-11.32-25.59-11.46-35.33-2.55-1.73,1.58-1.69,1.62,0,3.22A19.65,19.65,0,0,1,194,33.46c.8,1,1.3.85,2.16-.05a17.46,17.46,0,0,1,23-2.19c5.71,4.16,7.41,11.67,3.62,17.06a14.53,14.53,0,0,1-11.91,6.37c-3.13.12-6.25.05-9.39.05H179c-4.5,0-8.39-.07-12.88,0-1.18,0-1.8-.14-1.72-1.38.06-.85.16-1.74.17-2.59q0-11.72,0-23.44c0-6.12.81-4.84-5.26-5.05-1.09,0-1.54.37-1.53,1.51.05,8.67.05,17.35.09,26,0,3.34-1.39,4.81-4.77,4.85-5,.07-15.36.13-20.34.22-1.2,0-1.26-.67-1.18-1.57.13-1.33.32-2.68.33-4,0-7.5,0-15,0-22.51,0-4.44,0-4.36-4.42-4.52-1.66-.06-1.94.55-1.93,2,.07,8.3.06,16.61,0,24.91,0,4-1.51,5.46-5.47,5.47-10.28,0-5.25.06-15.53.08-2.64,0-2.59.05-5.23-.11-3-.17-4.16-1.56-4.16-4.49s0-6,0-9.05q0-8.67,0-17.35c0-.94.08-1.84-1.39-1.81-6,.09-14.63.05-20.59.15a44.36,44.36,0,0,0-6.42.53c-4.61.74-7.72,3.85-7.88,7.75q-.19,5.07-.24,10.14c0,2.95,0,5.9.1,8.85.08,3.74-1.23,5.23-4.93,5.35-2.21.07-7.13,0-9.34,0-10.65,0-21.29.08-31.94.07-4.37,0-5.68-1.44-5.66-5.82C7,41.6,7,34.35,7,27.09c0-6.06.59-4.63-4.88-4.86-1.26-.06-1.59.5-1.59,1.64q0,13.83,0,27.68a7.88,7.88,0,0,0,3.15,6.37c2.54,2.06,5.6,2.51,8.68,2.53,12.61.09,27.93.1,40.54,0A23.93,23.93,0,0,0,59,59.56a8.19,8.19,0,0,0,6.27-8.45c-.19-6,0-11.94-.06-17.9,0-3.73,1.49-5.26,5.24-5.28,4.48,0,11.67,0,16.16,0,1.52,0,2,.41,2,2-.08,7.14-.06,14.28,0,21.41,0,3.6,1.53,6.42,5,7.67a21.62,21.62,0,0,0,7.15,1.47c29.38.09,47.22.1,78.26,0,10,0,20-.08,29.95-.06a27.54,27.54,0,0,0,12.23-2.55C231.8,52.7,234.91,40.15,227.57,31Z"/><path class="cls-1" d="M128,6.64a3.48,3.48,0,0,0,3.33-3.25A4,4,0,0,0,128,0a3.79,3.79,0,0,0-3.28,3.4A3.28,3.28,0,0,0,128,6.64Z"/><path class="cls-1" d="M130,13.24a3.84,3.84,0,0,0,3.25,3.25,3.7,3.7,0,0,0,3.41-3.27,3.45,3.45,0,0,0-3.44-3.33A3.39,3.39,0,0,0,130,13.24Z"/><path class="cls-1" d="M123.3,16.5a4,4,0,0,0,3.43-3.33,3.64,3.64,0,0,0-3.31-3.33A3.6,3.6,0,0,0,120,13.08,3.8,3.8,0,0,0,123.3,16.5Z"/><path class="cls-1" d="M27,66.87a3.6,3.6,0,0,0-3.44,3.18,3.55,3.55,0,0,0,3.31,3.34,3.64,3.64,0,0,0,3.35-3.11A3.52,3.52,0,0,0,27,66.87Z"/><path class="cls-1" d="M36.92,66.87a3.67,3.67,0,0,0-3.39,3.26,3.8,3.8,0,0,0,3.24,3.26,3.59,3.59,0,0,0,3.43-3.21A3.44,3.44,0,0,0,36.92,66.87Z"/></g></g></svg>