<svg xmlns="http://www.w3.org/2000/svg" viewBox="0 0 1077.05 75.62"><defs><style>.cls-1{fill:#4a9edb;}</style></defs><title>logo-nissan-IM-black</title><g id="Слой_2" data-name="Слой 2"><g id="レイヤー_1" data-name="レイヤー 1"><path d="M871.53,52.66c0,14.06-9.37,23-23.17,23-14.67,0-23.83-9.11-23.83-23s9.16-22.82,23.77-22.82C863.18,29.84,871.53,39,871.53,52.66Zm-40.28,0c0,10.66,7,16.84,17.11,16.84,9.59,0,16.57-6.18,16.57-16.84,0-11.14-6.85-16.84-16.63-16.84C838.31,35.82,831.25,41.32,831.25,52.66Z"/><path d="M898.71,30.66c7.95,0,15.69,2.57,15.69,10.86a10.43,10.43,0,0,1-6.72,10.19v.06c4.14,1.36,8.22,4.55,8.22,11.15,0,9.37-8.28,11.88-18.82,11.88H879.63V30.66ZM886,49.4h11.28c6.52,0,10.46-2,10.46-6.79,0-5.64-5.77-6.11-10.46-6.11H886ZM886,69h10.74c6.92,0,12.49-1,12.49-6.8,0-5.09-4.69-7.12-12.23-7.12H886Z"/><path d="M925,74.8V30.66h6.38V74.8Z"/><path d="M974.08,69V74.8H942.37V30.66h6.38V69Z"/><path d="M980.93,74.8V30.66h6.38V74.8Z"/><path d="M1017.2,36.5V74.8h-6.39V36.5h-16.7V30.66h39.8V36.5Z"/><path d="M1077.05,30.66a278.85,278.85,0,0,1-17.72,29.2V74.8H1053V59.86c-2.93-3.87-11.28-17-17.73-29.2h7.47A220.39,220.39,0,0,0,1056.14,54a202.69,202.69,0,0,0,13.24-23.35Z"/><polygon points="342.24 30.66 342.24 63.66 317.45 30.66 310.11 30.66 310.11 74.8 316.43 74.8 316.43 39.22 343.19 74.8 348.55 74.8 348.55 30.66 342.24 30.66"/><path d="M378.73,36.5V74.8h-6.38V36.5H355.64V30.66h39.8V36.5Z"/><path d="M408.62,36.5V49.2h22.82V55H408.62V69h24.79V74.8H402.24V30.66h31.17V36.5Z"/><path d="M474.63,69V74.8H442.92V30.66h6.38V69Z"/><path d="M512.47,69V74.8H480.75V30.66h6.39V69Z"/><path d="M518.58,74.8V30.66H525V74.8Z"/><path d="M574.4,32.56v6.25c-5.9-2.18-9.7-3-14.93-3-10.26,0-19,5.5-19,17.11,0,12.16,10,16.71,19.43,16.71a29,29,0,0,0,8.29-1V53.13h6.39V72.9a39.06,39.06,0,0,1-15.15,2.72c-12.22,0-25.67-6.18-25.67-22.49,0-15.82,12.09-23.29,25.74-23.29A46.77,46.77,0,0,1,574.4,32.56Z"/><path d="M591.19,36.5V49.2H614V55H591.19V69H616V74.8H584.8V30.66H616V36.5Z"/><path d="M658.57,74.8,631.81,39.22V74.8h-6.32V30.66h7.33l24.79,33v-33h6.32V74.8Z"/><path d="M693.82,36.5V74.8h-6.39V36.5h-16.7V30.66h39.79V36.5Z"/><path d="M33.08,74.8,6.31,39.22V74.8H0V30.66H7.33l24.79,33v-33h6.32V74.8Z"/><path d="M49.31,74.8V30.66h6.38V74.8Z"/><path d="M96.92,32.15v6.11c-5.71-1.76-9.51-2.66-14.06-2.66-5.77,0-11.61,1.44-11.61,6.33C71.25,45.19,74,47,77.7,48l11.2,3.19c5.44,1.5,9.92,4.83,9.92,11.55C98.82,71,92,75.62,80.07,75.62a44.13,44.13,0,0,1-15.89-3V66.17c5.16,1.7,10,3.6,15.89,3.6,7.41,0,12.16-2.65,12.16-6.79,0-3.6-2.78-5.44-6.58-6.45L75.26,53.68C69.62,52.18,64.79,49,64.79,41.93c0-8.62,8.22-12.09,18.07-12.09A43.46,43.46,0,0,1,96.92,32.15Z"/><path d="M138,32.15v6.11c-5.7-1.76-9.51-2.66-14.06-2.66-5.77,0-11.61,1.44-11.61,6.33,0,3.26,2.78,5.09,6.45,6.11L130,51.23c5.43,1.5,9.91,4.83,9.91,11.55,0,8.22-6.86,12.84-18.74,12.84a44.14,44.14,0,0,1-15.9-3V66.17c5.17,1.7,10.06,3.6,15.9,3.6,7.4,0,12.15-2.65,12.15-6.79,0-3.6-2.78-5.44-6.59-6.45l-10.39-2.85c-5.63-1.5-10.45-4.69-10.45-11.75,0-8.62,8.22-12.09,18.06-12.09A43.5,43.5,0,0,1,138,32.15Z"/><path d="M182,74.8c-1.09-3.27-2.44-7.2-4.07-11.41h-24c-1.77,4.48-3.2,8.49-4.08,11.41H143c6.65-20.17,16.17-39.39,19.09-44.14h7.54c1.83,2.92,11.27,20.57,19.08,44.14ZM175.7,57.69a193.39,193.39,0,0,0-9.78-21.26c-2.78,5.23-6.51,13.45-9.7,21.26Z"/><path d="M226.85,74.8,200.09,39.22V74.8h-6.31V30.66h7.33l24.79,33v-33h6.32V74.8Z"/><path d="M809.05,12.35c4.13,21.61,6.33,41.4,8.35,62.45H802.9c-1.92-22.19-3.65-35-5.77-47.65-4.8,13.92-9.22,27.85-13.06,41.78H770C766.2,55,761.78,41.07,757,27.15c-2.11,12.68-3.84,25.46-5.76,47.65h-14.5c2-21,4.22-40.84,8.35-62.45h21.52c2.21,7,8.55,26.32,10.47,35.06,2-8.74,8.27-28,10.48-35.06Z"/><path d="M298.7,15.8a51.85,51.85,0,0,1-28.89,23.81V74.8h28.87Z"/><path class="cls-1" d="M269.81,15.56v7.53A36.41,36.41,0,0,0,288.74,0h-6.85A29.83,29.83,0,0,1,269.81,15.56Z"/><path d="M269.81,10.14A25.58,25.58,0,0,0,277.24,0h-7.43Z"/><path class="cls-1" d="M293.26,0a40.85,40.85,0,0,1-23.45,27.94v7A47.33,47.33,0,0,0,300,0Z"/></g></g></svg>