<svg xmlns="http://www.w3.org/2000/svg" viewBox="0 0 683.79 98.79"><defs><style>.cls-1{fill:#383838;}</style></defs><title>logo-nissan-footer</title><g id="Слой_2" data-name="Слой 2"><g id="ѓЊѓCѓ_Ѓ_1" data-name="ѓЊѓCѓ„Ѓ[ 1"><path class="cls-1" d="M521.39,15.6c-7-16.67-4.42-14.85-20-15.4-1.43-.05-4.57-.11-9.2-.11s-5.92,0-9.44.09c-14.72.27-12.4-.75-17.44,10.06,0,0-25.25,58.75-36.21,83.19l-.5,1c-2,4.14-.54,4.29,2.73,4.28l22.89,0A3,3,0,0,0,457,97s3.17-7.64,7.45-18H520c4.17,10.1,7.28,17.58,7.44,17.93a3,3,0,0,0,2.78,1.86l23.58-.05c3.51,0,4.26.46,2.92-2.77C552.55,85.79,525.33,24.91,521.39,15.6ZM473,58.33l14.43-34.86a2.46,2.46,0,0,1,2.29-1.5c.49-.06,1.68-.08,2.88-.08s2.26,0,2.65.08a2.66,2.66,0,0,1,2.32,1.69c1.77,4.89,7.77,19.66,13.93,34.67Z"/><path class="cls-1" d="M166.08.15H142.93c-1.83,0-2.35.91-2.35,2.52V95.73c0,2.58.57,3,3.11,3h21.94c2.44,0,3-.59,3-3v-93C168.58.91,168,.15,166.08.15Z"/><path class="cls-1" d="M114.19.13H95.27c-2.53,0-3,.59-3,3V76.85s-38.08-60.56-43-68.39C43.51-.57,41.48,0,24.89,0S3,.13,3,.13c-2.53,0-3,.59-3,3L.05,95.73c0,2.53.54,3,3,3H22c2.57,0,3.05-.59,3.05-3l0-72.66S56.36,73.3,66.91,90.14c5.36,8.55,6.3,8.59,21.67,8.61H114.2c2.51,0,3-.48,3-3V3.15C117.25.7,116.8.13,114.19.13Z"/><path class="cls-1" d="M680.72.13H661.8c-2.52,0-3,.59-3,3l0,73.69s-38.07-60.56-43-68.39C610-.57,608,0,591.42,0s-21.88.12-21.88.12c-2.54,0-3,.59-3,3l.05,92.59c0,2.53.55,3,3,3h19c2.57,0,3-.59,3-3l0-72.66s31.29,50.21,41.84,67.05c5.36,8.55,6.3,8.59,21.67,8.61h25.62c2.52,0,3.06-.48,3.06-3V3.15C683.79.7,683.33.13,680.72.13Z"/><path class="cls-1" d="M265.58,38c-9.12-.92-34.09-3.33-42.26-4.09-3-.28-3.85-2.06-4.08-4.05a17.54,17.54,0,0,1-.11-2.23,17.11,17.11,0,0,1,.11-2c.26-2.8,1.68-4,4.62-4h67.62c2.45,0,3-.48,3-3V2.87c0-2.37-.7-2.79-3-2.8H222.8c-17.9,0-28,6.67-30.74,20.46a53.15,53.15,0,0,0-.74,9.53,71.27,71.27,0,0,0,.55,9.12c1.06,7.89,5.77,17.16,26.36,19.24,16.36,1.66,39.9,3.67,47.83,4.38,3.55.31,4.2,3.08,4.42,4.64a20.88,20.88,0,0,1,.13,2.65c0,1,0,2.15-.13,3.66-.18,2.19-1.16,3.23-3.94,3.23H194.79c-2.53,0-3,.53-3,3V95.65c0,2.54.59,3,3,3h70.84c17.52,0,29-3,32.11-18.6a59.68,59.68,0,0,0,.78-10.57,71,71,0,0,0-.62-10.39C294.7,42.84,282.66,39.66,265.58,38Z"/><path class="cls-1" d="M389.89,38c-9.13-.92-34.09-3.33-42.26-4.09-3-.28-3.85-2.06-4.09-4.05a17.54,17.54,0,0,1-.11-2.23,19.48,19.48,0,0,1,.11-2c.27-2.8,1.69-4,4.63-4h67.62c2.45,0,3-.48,3-3V2.87c0-2.37-.7-2.79-3-2.8H347.11c-17.9,0-28,6.67-30.74,20.46a53.15,53.15,0,0,0-.74,9.53,73.27,73.27,0,0,0,.54,9.12c1.08,7.89,5.78,17.16,26.37,19.24,16.36,1.66,39.9,3.67,47.83,4.38,3.55.31,4.2,3.08,4.42,4.64a20.88,20.88,0,0,1,.13,2.65c0,1,0,2.15-.13,3.66-.18,2.19-1.16,3.23-3.94,3.23H319.1c-2.53,0-3,.53-3,3V95.65c0,2.54.59,3,3,3h70.84c17.52,0,29-3,32.11-18.6a59.68,59.68,0,0,0,.78-10.57,71,71,0,0,0-.62-10.39C419,42.84,407,39.66,389.89,38Z"/></g></g></svg>